<svg width="51" height="50" viewBox="0 0 51 50" fill="none" xmlns="http://www.w3.org/2000/svg">
<path d="M43.4583 17.6048C41.2708 7.97982 32.875 3.64648 25.5 3.64648C25.5 3.64648 25.5 3.64648 25.4791 3.64648C18.125 3.64648 9.70829 7.95898 7.52079 17.584C5.08329 28.334 11.6666 37.4381 17.625 43.1673C19.8333 45.2923 22.6666 46.3548 25.5 46.3548C28.3333 46.3548 31.1666 45.2923 33.3541 43.1673C39.3125 37.4381 45.8958 28.3548 43.4583 17.6048ZM25.5 28.0423C21.875 28.0423 18.9375 25.1048 18.9375 21.4798C18.9375 17.8548 21.875 14.9173 25.5 14.9173C29.125 14.9173 32.0625 17.8548 32.0625 21.4798C32.0625 25.1048 29.125 28.0423 25.5 28.0423Z" fill="#004E6B"/>
</svg>
