<svg xmlns="http://www.w3.org/2000/svg" width="63" height="46" viewBox="0 0 63 46" fill="none">
<path d="M62.1692 35.4462C62.0308 18.8308 48.8769 5.26154 32.4 4.56923C33.0923 4.15385 33.5077 3.32308 33.5077 2.49231C33.5077 1.10769 32.4 0 31.0154 0C29.6308 0 28.5231 1.10769 28.5231 2.49231C28.5231 3.32308 28.9385 4.15385 29.6308 4.56923C13.2923 5.26154 0.138462 18.8308 0 35.4462V36.1385H62.1692V35.4462ZM29.3538 2.49231C29.3538 1.52308 30.1846 0.692308 31.1538 0.692308C32.1231 0.692308 32.9538 1.52308 32.9538 2.49231C32.9538 3.46154 32.1231 4.29231 31.1538 4.29231C30.1846 4.29231 29.3538 3.46154 29.3538 2.49231ZM1.38462 34.7538C1.8 18.8308 15.0923 5.95385 31.1538 5.95385C47.2154 5.95385 60.3692 18.8308 60.9231 34.7538H1.38462Z" fill="#282828"/>
<path d="M0.96875 45.001H61.338V37.9395H0.96875V45.001ZM2.35337 39.3241H59.9534V43.6164H2.35337V39.3241Z" fill="#282828"/>
</svg>