<svg xmlns="http://www.w3.org/2000/svg" width="68" height="48" viewBox="0 0 68 48" fill="none">
<g clip-path="url(#clip0_1292_9173)">
<path d="M0 0V42.3911H68V0H0ZM66.3782 40.8458C66.1658 41.0366 65.9341 41.151 65.6831 41.2273C65.4321 41.2846 65.1811 41.3037 64.9495 41.3037C48.4418 41.2846 31.6638 41.2846 15.4458 41.2846H3.06985C2.83816 41.2846 2.60647 41.2655 2.37479 41.2655C2.25894 41.2655 2.16241 41.2464 2.02726 41.2464L1.29358 41.2083V1.25914H66.7257L66.7643 1.9841C66.7643 2.09857 66.7836 2.21304 66.7836 2.3275C66.8029 2.57552 66.8223 2.82353 66.8223 3.09062C66.8223 6.33386 66.8223 9.57711 66.8223 12.8203C66.8223 21.5389 66.8223 30.5628 66.8416 39.4149C66.8416 39.911 66.7836 40.4452 66.3782 40.8458Z" fill="#282828"/>
<path d="M0 0V42.3911H68V0H0ZM66.3782 40.8458C66.1658 41.0366 65.9341 41.151 65.6831 41.2273C65.4321 41.2846 65.1811 41.3037 64.9495 41.3037C48.4418 41.2846 31.6638 41.2846 15.4458 41.2846H3.06985C2.83816 41.2846 2.60647 41.2655 2.37479 41.2655C2.25894 41.2655 2.16241 41.2464 2.02726 41.2464L1.29358 41.2083V1.25914H66.7257L66.7643 1.9841C66.7643 2.09857 66.7836 2.21304 66.7836 2.3275C66.8029 2.57552 66.8223 2.82353 66.8223 3.09062C66.8223 6.33386 66.8223 9.57711 66.8223 12.8203C66.8223 21.5389 66.8223 30.5628 66.8416 39.4149C66.8416 39.911 66.7836 40.4452 66.3782 40.8458Z" fill="#282828"/>
<path d="M54.1372 47.3898C54.1372 47.6569 54.06 47.9049 53.558 47.9812C53.4808 48.0003 53.4036 48.0003 53.2877 48.0003C53.2105 48.0003 53.1333 48.0003 53.0753 48.0003C52.9788 48.0003 52.9016 48.0003 52.8243 48.0003H15.098C15.0015 48.0003 14.905 48.0003 14.8084 48.0003C14.7312 48.0003 14.654 48.0003 14.5768 48.0003C14.4802 48.0003 14.403 48.0003 14.3451 47.9812C13.8624 47.9049 13.7852 47.7141 13.7852 47.3898C13.7852 46.9892 13.9203 46.8556 14.3065 46.7984C14.4416 46.7793 14.5961 46.7793 14.7312 46.7793H15.0787C21.3729 46.7793 27.6477 46.7793 33.9419 46.7793C40.236 46.7793 53.0367 46.7793 53.0367 46.7793C53.2105 46.7793 53.4036 46.7793 53.5966 46.7984C53.9828 46.8556 54.1372 47.0273 54.1372 47.3898Z" fill="#282828"/>
<path d="M54.1372 47.3898C54.1372 47.6569 54.06 47.9049 53.558 47.9812C53.4808 48.0003 53.4036 48.0003 53.2877 48.0003C53.2105 48.0003 53.1333 48.0003 53.0753 48.0003C52.9788 48.0003 52.9016 48.0003 52.8243 48.0003H15.098C15.0015 48.0003 14.905 48.0003 14.8084 48.0003C14.7312 48.0003 14.654 48.0003 14.5768 48.0003C14.4802 48.0003 14.403 48.0003 14.3451 47.9812C13.8624 47.9049 13.7852 47.7141 13.7852 47.3898C13.7852 46.9892 13.9203 46.8556 14.3065 46.7984C14.4416 46.7793 14.5961 46.7793 14.7312 46.7793H15.0787C21.3729 46.7793 27.6477 46.7793 33.9419 46.7793C40.236 46.7793 53.0367 46.7793 53.0367 46.7793C53.2105 46.7793 53.4036 46.7793 53.5966 46.7984C53.9828 46.8556 54.1372 47.0273 54.1372 47.3898Z" fill="#282828"/>
</g>
<defs>
<clipPath id="clip0_1292_9173">
<rect width="68" height="48" fill="white"/>
</clipPath>
</defs>
</svg>